<svg width="128" height="128" viewBox="0 0 128 128" fill="none" xmlns="http://www.w3.org/2000/svg">
<path fill-rule="evenodd" clip-rule="evenodd" d="M90.4909 57.282C90.1209 52.492 88.9949 47.873 87.4289 43.348C84.1849 33.244 78.9789 24.302 71.6459 16.608C69.7919 14.662 67.7299 12.879 66.4369 10.457C65.6189 8.92499 64.8399 7.37199 64.0429 5.82799L63.5379 4.55499C63.4529 4.84699 63.3989 4.95099 63.3959 5.05599C63.3309 7.57299 61.9049 9.27999 60.1289 10.873C58.1319 12.666 56.2729 14.612 54.3539 16.491L48.4529 24.254C46.8609 27.179 45.2709 30.104 43.6809 33.029L40.4909 41.646L40.3949 41.78C38.6389 47.548 37.7729 53.478 37.3469 59.468C37.1869 61.719 37.3689 64.003 37.4959 66.266C37.6769 69.501 38.2389 72.681 39.0819 75.811C42.1439 87.183 48.3579 96.616 56.8529 104.63C58.4319 106.119 60.0519 107.473 61.6999 108.89C61.9819 107.925 62.2069 106.96 62.4629 105.995C62.7189 105.034 62.9779 104.078 63.1509 103.114C62.9769 104.078 62.7819 105.034 62.5889 105.995L61.7629 108.89L62.5009 111.391L63.1849 115.275L63.5109 119.328C63.5079 120.151 63.4749 120.976 63.5249 121.798C63.5369 122.008 63.8129 122.202 63.9669 122.404L65.3429 122.887L66.7769 123.445L66.5309 119.842L66.5199 116.294L67.0149 110.889L67.3739 109.712L68.4009 107.892C69.6689 106.872 71.0299 105.946 72.1849 104.811C74.2749 102.757 76.3599 100.677 78.2299 98.428C80.6639 95.5129 82.7422 92.3184 84.4209 88.912C85.5429 86.628 86.5989 84.298 87.4729 81.911C88.2429 79.807 88.7199 77.596 89.3269 75.432C89.3809 75.276 89.4529 75.123 89.4869 74.964C90.7409 69.123 90.9519 63.223 90.4909 57.282V57.282ZM66.8919 106.657L66.0869 104.894L66.8919 106.657L68.0749 107.667L66.8919 106.657Z" fill="#4FAA41"/>
</svg>
