<svg width="128" height="128" viewBox="0 0 128 128" fill="none" xmlns="http://www.w3.org/2000/svg">
<path d="M64.0006 75.4C70.2966 75.4 75.4006 70.2961 75.4006 64C75.4006 57.704 70.2966 52.6 64.0006 52.6C57.7045 52.6 52.6006 57.704 52.6006 64C52.6006 70.2961 57.7045 75.4 64.0006 75.4Z" fill="#61DAFB"/>
<path d="M107.3 45.2C105.1 44.4 102.8 43.6 100.4 42.9C101 40.5 101.5 38.1 101.9 35.8C104 22.6 101.7 13.3 95.3004 9.70001C93.4004 8.60001 91.3004 8.10001 88.9004 8.10001C81.9004 8.10001 73.0004 13.3 64.0004 22C55.0004 13.3 46.1004 8.10001 39.1004 8.10001C36.7004 8.10001 34.6004 8.60001 32.7004 9.70001C26.3004 13.4 24.0004 22.7 26.1004 35.8C26.5004 38.1 27.0004 40.5 27.6004 42.9C25.2004 43.6 22.9004 44.3 20.7004 45.2C8.20039 50 1.40039 56.6 1.40039 64C1.40039 71.4 8.30039 78 20.7004 82.8C22.9004 83.6 25.2004 84.4 27.6004 85.1C27.0004 87.5 26.5004 89.9 26.1004 92.2C24.0004 105.4 26.3004 114.7 32.7004 118.3C34.6004 119.4 36.7004 119.9 39.1004 119.9C46.2004 119.9 55.1004 114.7 64.0004 106C73.0004 114.7 81.9004 119.9 88.9004 119.9C91.3004 119.9 93.4004 119.4 95.3004 118.3C101.7 114.6 104 105.3 101.9 92.2C101.5 89.9 101 87.5 100.4 85.1C102.8 84.4 105.1 83.7 107.3 82.8C119.8 78 126.6 71.4 126.6 64C126.6 56.6 119.8 50 107.3 45.2V45.2ZM92.5004 14.7C96.6004 17.1 98.0004 24.5 96.3004 35C96.0004 37.1 95.5004 39.3 94.9004 41.6C89.7004 40.4 84.2004 39.6 78.4004 39.1C75.0004 34.3 71.5004 30 68.0004 26.1C75.4004 18.8 82.9004 13.8 89.0004 13.8C90.3004 13.8 91.5004 14.1 92.5004 14.7V14.7ZM81.3004 74C79.5004 77.2 77.4004 80.4 75.2004 83.6C71.5004 83.9 67.8004 84 64.0004 84C60.1004 84 56.4004 83.9 52.8004 83.6C50.6004 80.4 48.6004 77.2 46.8004 74C44.9004 70.7 43.1004 67.3 41.5004 64C43.1004 60.7 44.9004 57.3 46.8004 54C48.6004 50.8 50.7004 47.6 52.9004 44.4C56.6004 44.1 60.3004 44 64.1004 44C68.0004 44 71.7004 44.1 75.3004 44.4C77.5004 47.6 79.5004 50.8 81.3004 54C83.2004 57.3 85.0004 60.7 86.6004 64C84.9004 67.3 83.2004 70.6 81.3004 74ZM89.6004 70.7C91.1004 74.2 92.3004 77.6 93.4004 81C90.0004 81.8 86.4004 82.4 82.6004 82.9C83.8004 81 85.1004 79 86.2004 76.9C87.4004 74.8 88.5004 72.7 89.6004 70.7ZM64.0004 97.8C61.6004 95.2 59.3004 92.4 57.1004 89.5C59.4004 89.6 61.7004 89.7 64.0004 89.7C66.3004 89.7 68.6004 89.6 70.9004 89.5C68.7004 92.4 66.4004 95.2 64.0004 97.8ZM45.4004 82.8C41.6004 82.3 38.0004 81.7 34.6004 80.9C35.7004 77.6 36.9004 74.1 38.4004 70.6C39.5004 72.6 40.6004 74.7 41.8004 76.7C43.0004 78.9 44.2004 80.8 45.4004 82.8V82.8ZM38.4004 57.3C36.9004 53.8 35.7004 50.4 34.6004 47C38.0004 46.2 41.6004 45.6 45.4004 45.1C44.2004 47 42.9004 49 41.8004 51.1C40.6004 53.2 39.5004 55.3 38.4004 57.3V57.3ZM64.0004 30.2C66.4004 32.8 68.7004 35.6 70.9004 38.5C68.6004 38.4 66.3004 38.3 64.0004 38.3C61.7004 38.3 59.4004 38.4 57.1004 38.5C59.3004 35.6 61.6004 32.8 64.0004 30.2ZM86.2004 51.2L82.6004 45.2C86.4004 45.7 90.0004 46.3 93.4004 47.1C92.3004 50.4 91.1004 53.9 89.6004 57.4C88.5004 55.3 87.4004 53.2 86.2004 51.2ZM31.7004 35C30.0004 24.5 31.4004 17.1 35.5004 14.7C36.5004 14.1 37.7004 13.8 39.0004 13.8C45.0004 13.8 52.5004 18.7 60.0004 26.1C56.5004 29.9 53.0004 34.3 49.6004 39.1C43.8004 39.6 38.3004 40.5 33.1004 41.6C32.5004 39.3 32.1004 37.1 31.7004 35V35ZM7.00039 64C7.00039 59.3 12.7004 54.3 22.7004 50.6C24.7004 49.8 26.9004 49.1 29.1004 48.5C30.7004 53.5 32.7004 58.8 35.1004 64.1C32.7004 69.4 30.6004 74.6 29.1004 79.6C15.3004 75.6 7.00039 69.6 7.00039 64ZM35.5004 113.3C31.4004 110.9 30.0004 103.5 31.7004 93C32.0004 90.9 32.5004 88.7 33.1004 86.4C38.3004 87.6 43.8004 88.4 49.6004 88.9C53.0004 93.7 56.5004 98 60.0004 101.9C52.6004 109.2 45.1004 114.2 39.0004 114.2C37.7004 114.2 36.5004 113.9 35.5004 113.3ZM96.3004 93C98.0004 103.5 96.6004 110.9 92.5004 113.3C91.5004 113.9 90.3004 114.2 89.0004 114.2C83.0004 114.2 75.5004 109.3 68.0004 101.9C71.5004 98.1 75.0004 93.7 78.4004 88.9C84.2004 88.4 89.7004 87.5 94.9004 86.4C95.5004 88.7 95.9004 90.9 96.3004 93V93ZM105.3 77.4C103.3 78.2 101.1 78.9 98.9004 79.5C97.3004 74.5 95.3004 69.2 92.9004 63.9C95.3004 58.6 97.4004 53.4 98.9004 48.4C112.7 52.4 121 58.4 121 64C121 68.7 115.2 73.7 105.3 77.4Z" fill="#61DAFB"/>
</svg>
